<?xml version="1.0" encoding="UTF-8" standalone="no" ?>
<!DOCTYPE svg PUBLIC "-//W3C//DTD SVG 1.1//EN" "http://www.w3.org/Graphics/SVG/1.1/DTD/svg11.dtd">
<svg xmlns="http://www.w3.org/2000/svg" xmlns:xlink="http://www.w3.org/1999/xlink" version="1.1" width="640" height="480" viewBox="0 0 640 480" xml:space="preserve">
<desc>Created with Fabric.js 3.6.6</desc>
<defs>
</defs>
<g transform="matrix(-0.96 0 0 1.16 576.75 327.75)" id="1"  >
<rect style="stroke: none; stroke-width: 1; stroke-dasharray: none; stroke-linecap: butt; stroke-dashoffset: 0; stroke-linejoin: miter; stroke-miterlimit: 4; fill: rgb(243 82 82); fill-rule: nonzero; opacity: 1; visibility: hidden;" vector-effect="non-scaling-stroke"  x="-540" y="-540" rx="0" ry="0" width="1080" height="1080" />
</g>
<g transform="matrix(-1.9 0 0 2.3 310.37 236.74)"  >
<path style="stroke: none; stroke-width: 1; stroke-dasharray: none; stroke-linecap: butt; stroke-dashoffset: 0; stroke-linejoin: miter; stroke-miterlimit: 4; fill: rgb(243 82 82); fill-rule: nonzero; opacity: 1;" vector-effect="non-scaling-stroke"  transform=" translate(-100, -93.2)" d="M 190.312 36.4879 C 206.582 62.1187 201.309 102.826 182.328 134.186 C 163.346 165.547 130.807 187.559 100.226 186.353 C 69.6454 185.297 41.0228 161.023 21.7403 129.362 C 2.45775 97.8511 -7.48481 59.1033 6.67581 34.5279 C 20.9871 10.1032 59.7028 -0.149132 97.9666 0.00163737 C 136.23 0.303176 174.193 10.857 190.312 36.4879 Z" stroke-linecap="round" />
</g>
</svg>